<?xml version="1.0" encoding="iso-8859-1"?>
<!-- Generator: Adobe Illustrator 19.0.0, SVG Export Plug-In . SVG Version: 6.00 Build 0)  -->
<svg version="1.1" id="Layer_1" xmlns="http://www.w3.org/2000/svg" xmlns:xlink="http://www.w3.org/1999/xlink" x="0px" y="0px"
	 viewBox="0 0 297 297" style="enable-background:new 0 0 297 297;" xml:space="preserve">
<g>
	<g>
		<g>
			<g>
				<g>
					<g>
						<circle style="fill:#9ADAD9;" cx="148.5" cy="148.5" r="148.5"/>
					</g>
				</g>
			</g>
		</g>
	</g>
	<path style="fill:#72B7B3;" d="M293.436,116.062L263.26,84.956L47.598,232.619l58.349,58.182C119.429,294.827,133.71,297,148.5,297
		c82.014,0,148.5-66.486,148.5-148.5C297,137.357,295.763,126.504,293.436,116.062z"/>
	<g>
		<path style="fill:#5B5869;" d="M148.5,118c-1.381,0-2.5-1.119-2.5-2.5V99c0-1.381,1.119-2.5,2.5-2.5s2.5,1.119,2.5,2.5v16.5
			C151,116.881,149.881,118,148.5,118z"/>
	</g>
	<g>
		<circle style="fill:#345065;" cx="148.5" cy="181.5" r="66"/>
	</g>
	<g>
		<path style="fill:#2C3E50;" d="M148.5,115.5c-0.279,0-0.554,0.018-0.833,0.021v131.958c0.279,0.003,0.554,0.021,0.833,0.021
			c36.451,0,66-29.549,66-66S184.951,115.5,148.5,115.5z"/>
	</g>
	<g>
		<circle style="fill:#D5F5E6;" cx="148.5" cy="181.5" r="49.5"/>
	</g>
	<g>
		<path style="fill:#9ADAD9;" d="M148.5,132c-0.279,0-0.555,0.016-0.833,0.021v98.958c0.278,0.005,0.554,0.021,0.833,0.021
			c27.338,0,49.5-22.162,49.5-49.5S175.838,132,148.5,132z"/>
	</g>
	<g>
		<circle style="fill:#2C3E50;" cx="148.5" cy="181.5" r="16.5"/>
	</g>
	<g>
		<path style="fill:#32373B;" d="M148.5,165c-0.281,0-0.555,0.028-0.833,0.042v32.916c0.278,0.014,0.552,0.042,0.833,0.042
			c9.113,0,16.5-7.387,16.5-16.5S157.613,165,148.5,165z"/>
	</g>
	<g>
		<path style="fill:#5B5869;" d="M66,233.5c-1.381,0-2.5-1.119-2.5-2.5V74.5c0-1.381,1.119-2.5,2.5-2.5s2.5,1.119,2.5,2.5V231
			C68.5,232.381,67.381,233.5,66,233.5z"/>
	</g>
	<g>
		<path style="fill:#5B5869;" d="M82.502,233.501c-0.917,0-1.8-0.507-2.238-1.383L66,203.59l-14.264,28.528
			c-0.618,1.235-2.12,1.734-3.354,1.118c-1.234-0.618-1.735-2.119-1.118-3.354l16.5-33c0.424-0.847,1.289-1.382,2.236-1.382
			s1.813,0.535,2.236,1.382l16.5,33c0.617,1.235,0.116,2.736-1.118,3.354C83.259,233.415,82.878,233.501,82.502,233.501z"/>
	</g>
	<g>
		<path style="fill:#FFCF6D;" d="M102,90.75C102,95.306,85.882,99,66,99s-36-3.694-36-8.25H102z"/>
	</g>
	<g>
		<path style="fill:#FFCF6D;" d="M30,86.625c0-4.556,16.118-8.25,36-8.25s36,3.694,36,8.25H30z"/>
	</g>
	<g>
		<path style="fill:#5B5869;" d="M228,233.5c-1.381,0-2.5-1.119-2.5-2.5V74.5c0-1.381,1.119-2.5,2.5-2.5s2.5,1.119,2.5,2.5V231
			C230.5,232.381,229.381,233.5,228,233.5z"/>
	</g>
	<g>
		<path style="fill:#5B5869;" d="M244.502,233.501c-0.917,0-1.8-0.507-2.238-1.383L228,203.59l-14.264,28.528
			c-0.618,1.235-2.119,1.734-3.354,1.118c-1.234-0.618-1.735-2.119-1.118-3.354l16.5-33c0.424-0.847,1.289-1.382,2.236-1.382
			s1.813,0.535,2.236,1.382l16.5,33c0.617,1.235,0.116,2.736-1.118,3.354C245.259,233.415,244.878,233.501,244.502,233.501z"/>
	</g>
	<g>
		<path style="fill:#FFCF6D;" d="M264,90.75c0,4.556-16.118,8.25-36,8.25s-36-3.694-36-8.25H264z"/>
	</g>
	<g>
		<path style="fill:#FFCF6D;" d="M192,86.625c0-4.556,16.118-8.25,36-8.25s36,3.694,36,8.25H192z"/>
	</g>
	<g>
		<path style="fill:#345065;" d="M176.167,110h-55.333c-2.946,0-5.334-2.388-5.334-5.334V82.334c0-2.946,2.388-5.334,5.334-5.334
			h55.333c2.946,0,5.333,2.388,5.333,5.334v22.333C181.5,107.612,179.112,110,176.167,110z"/>
	</g>
	<g>
		<path style="fill:#2C3E50;" d="M176.167,77h-28.5v33h28.5c2.946,0,5.333-2.388,5.333-5.333V82.333
			C181.5,79.388,179.112,77,176.167,77z"/>
	</g>
	<g>
		<rect x="115.5" y="85.25" style="fill:#D5F5E6;" width="66" height="16.5"/>
	</g>
	<g>
		<rect x="147.667" y="85.25" style="fill:#9ADAD9;" width="33.833" height="16.5"/>
	</g>
</g>
<g>
</g>
<g>
</g>
<g>
</g>
<g>
</g>
<g>
</g>
<g>
</g>
<g>
</g>
<g>
</g>
<g>
</g>
<g>
</g>
<g>
</g>
<g>
</g>
<g>
</g>
<g>
</g>
<g>
</g>
</svg>
